<svg xmlns="http://www.w3.org/2000/svg" width="20" height="20" viewBox="0 0 20 20"><title>Artboard 1</title><path d="M18.3,2.7a.65.65,0,0,1,.6.6V16.6a.65.65,0,0,1-.6.6H1.7a.65.65,0,0,1-.6-.6V3.3a.65.65,0,0,1,.6-.6Z" style="fill:none;stroke:#969696;stroke-miterlimit:10;stroke-width:1.1100000143051147px"/><circle cx="14.6" cy="5" r="0.4" style="fill:#e0e0e0;stroke:#969696;stroke-miterlimit:10;stroke-width:1.1100000143051147px"/><circle cx="5.4" cy="5" r="0.4" style="fill:#e0e0e0;stroke:#969696;stroke-miterlimit:10;stroke-width:1.1100000143051147px"/><rect x="14" y="9.2" width="1.7" height="1.9" style="fill:#999;stroke:#969696;stroke-miterlimit:10;stroke-width:1.1100000143051147px"/><rect x="10.8" y="9.2" width="1.7" height="1.9" style="fill:#999;stroke:#969696;stroke-miterlimit:10;stroke-width:1.1100000143051147px"/><rect x="7.5" y="9.2" width="1.7" height="1.9" style="fill:#999;stroke:#969696;stroke-miterlimit:10;stroke-width:1.1100000143051147px"/><rect x="14" y="12.9" width="1.7" height="1.9" style="fill:#999;stroke:#999;stroke-miterlimit:10;stroke-width:1.1100000143051147px"/><rect x="10.8" y="12.9" width="1.7" height="1.9" style="fill:#999;stroke:#969696;stroke-miterlimit:10;stroke-width:1.1100000143051147px"/><rect x="7.5" y="12.9" width="1.7" height="1.9" style="fill:#999;stroke:#969696;stroke-miterlimit:10;stroke-width:1.1100000143051147px"/><rect x="4.2" y="9.2" width="1.7" height="1.9" style="fill:#999;stroke:#969696;stroke-miterlimit:10;stroke-width:1.1100000143051147px"/><line x1="1.1" y1="7" x2="18.9" y2="7" style="fill:none;stroke:#969696;stroke-miterlimit:10;stroke-width:1.1100000143051147px"/></svg>